<svg xmlns="http://www.w3.org/2000/svg" xmlns:xlink="http://www.w3.org/1999/xlink" width="1080" zoomAndPan="magnify" viewBox="0 0 810 809.999993" height="1080" preserveAspectRatio="xMidYMid meet" version="1.0"><path fill="#000000" d="M 319.3125 739.976562 C 309.554688 734.679688 301.347656 728.46875 294.984375 720.085938 C 291.921875 716.050781 290.734375 711.464844 295.113281 707.789062 C 299.160156 704.390625 303.15625 706.191406 306.535156 709.628906 C 332.089844 735.660156 362.882812 740.472656 397.027344 732.140625 C 459.863281 716.804688 514.351562 685.851562 561.691406 642.441406 C 605.347656 602.414062 629.390625 551.101562 642.382812 494.183594 C 654.238281 442.242188 659.542969 389.597656 658.195312 336.28125 C 658.054688 330.601562 655.15625 321.4375 664.605469 321.273438 C 674.507812 321.101562 672.808594 330.300781 673.03125 337.023438 C 674.753906 389.167969 669.34375 440.65625 658.808594 491.671875 C 658.289062 494.179688 656.839844 496.832031 659.527344 498.769531 C 662.300781 500.769531 664.933594 499.253906 667.542969 497.867188 C 674.25 494.304688 680.199219 489.667969 684.683594 483.652344 C 704.257812 457.390625 713.953125 427.472656 716.699219 395.082031 C 717.054688 390.898438 715.714844 387.195312 713.863281 383.546875 C 710.863281 377.632812 706.546875 375.75 700.433594 378.808594 C 699.921875 379.066406 699.425781 379.375 698.890625 379.570312 C 694.121094 381.316406 688.429688 386.898438 684.8125 379.535156 C 681.460938 372.707031 687.054688 367.765625 692.640625 365.332031 C 714.929688 355.621094 728.832031 363.3125 731.542969 391.203125 C 732.839844 404.523438 729.664062 417.46875 726.269531 430.230469 C 720.5625 451.691406 713.253906 472.492188 700.050781 490.734375 C 690.574219 503.835938 678.167969 512.78125 662.339844 516.121094 C 654.820312 517.710938 651.125 521.773438 648.933594 528.757812 C 637.117188 566.414062 619.59375 601.054688 593.964844 631.339844 C 570.515625 659.046875 542.164062 680.789062 511.707031 700.207031 C 472.710938 725.074219 430.773438 742.273438 385.171875 749.914062 C 362.601562 753.695312 340.535156 751 319.3125 739.976562 Z M 319.3125 739.976562 " fill-opacity="1" fill-rule="nonzero"/><path fill="#000000" d="M 248.300781 267.09375 C 273.332031 267.9375 295.71875 273.847656 313.257812 291.820312 C 332.65625 311.695312 337.464844 336.617188 337.160156 363.210938 C 336.902344 385.699219 329.980469 406.675781 322.550781 427.484375 C 316.570312 444.230469 310.019531 460.777344 303.546875 477.339844 C 298.410156 490.492188 299.941406 494.816406 312.644531 501.441406 C 313.917969 502.105469 315.234375 502.699219 316.460938 503.4375 C 320.023438 505.589844 322.113281 508.484375 320.210938 512.742188 C 318.34375 516.914062 315.082031 519.03125 310.472656 517.652344 C 291.648438 512.023438 280.914062 497.867188 287.164062 479.402344 C 295.441406 454.964844 304.726562 430.871094 313.285156 406.527344 C 321.003906 384.566406 325.003906 361.984375 319.910156 338.890625 C 308.117188 285.4375 243.90625 265.316406 203.554688 302.199219 C 201.015625 304.519531 198.648438 307.035156 196.289062 309.542969 C 192.917969 313.121094 189.347656 317.960938 184.179688 313.476562 C 179.492188 309.410156 182.527344 304.535156 185.332031 300.367188 C 200.175781 278.300781 221.925781 269.117188 248.300781 267.09375 Z M 248.300781 267.09375 " fill-opacity="1" fill-rule="nonzero"/><path fill="#000000" d="M 278.320312 573.582031 C 293.464844 562.238281 309.132812 557.261719 327.039062 564.714844 C 331.027344 566.371094 334.933594 565.214844 338.75 563.753906 C 350.972656 559.082031 362.863281 560.523438 374.59375 565.609375 C 391.355469 572.878906 406.761719 583.421875 425.339844 586.320312 C 429.355469 586.949219 429.460938 590.589844 429.492188 593.800781 C 429.535156 597.921875 427.09375 600 423.351562 600.933594 C 409.3125 604.433594 395.015625 606.074219 380.773438 603.441406 C 366.996094 600.894531 353.566406 600.386719 340.007812 604.308594 C 336.53125 605.3125 332.882812 606.210938 329.035156 604.914062 C 315.183594 600.238281 300.792969 600.917969 286.480469 601.039062 C 279.429688 601.101562 272.769531 599.5 266.757812 595.933594 C 259.515625 591.640625 259.699219 584.902344 266.835938 580.714844 C 270.539062 578.539062 274.148438 576.203125 278.320312 573.582031 M 330.105469 581.8125 C 325.90625 581.765625 322.589844 579.15625 318.792969 577.929688 C 308.488281 574.597656 299.4375 576.800781 294.695312 583.878906 C 321.832031 592.121094 349.019531 587.53125 377.339844 585.753906 C 375.882812 583.746094 375.640625 583.15625 375.199219 582.859375 C 374.257812 582.226562 373.222656 581.726562 372.207031 581.207031 C 358.554688 574.203125 345.015625 576.292969 330.105469 581.8125 Z M 330.105469 581.8125 " fill-opacity="1" fill-rule="nonzero"/><path fill="#000000" d="M 203.824219 226.636719 C 216.832031 202.484375 223.898438 176.550781 234.832031 152.210938 C 245.320312 128.855469 258.585938 107.683594 279.175781 91.8125 C 287.222656 85.613281 296.132812 81.109375 305.859375 78.21875 C 310.789062 76.753906 315.46875 77.222656 317.21875 82.636719 C 318.792969 87.5 315.839844 91.203125 311.265625 92.605469 C 275.875 103.445312 260.191406 132.261719 246.820312 163.105469 C 237.011719 185.730469 230.320312 209.605469 219.285156 231.769531 C 210.265625 249.886719 197.136719 263.742188 178.886719 272.578125 C 174.441406 274.730469 169.363281 277.175781 166.113281 271.164062 C 162.847656 265.117188 166.800781 261.492188 171.75 258.839844 C 185.515625 251.464844 196.695312 241.527344 203.824219 226.636719 Z M 203.824219 226.636719 " fill-opacity="1" fill-rule="nonzero"/><path fill="#000000" d="M 405.875 285.875 C 401.886719 289.710938 398.082031 292.5625 393.503906 288.277344 C 388.785156 283.851562 392.273438 279.613281 394.847656 276.050781 C 400.285156 268.515625 407.332031 262.472656 415.4375 258.011719 C 467.523438 229.34375 520.753906 222.613281 575.5 250.46875 C 580.320312 252.921875 584.792969 256.183594 589.085938 259.507812 C 593.097656 262.613281 595.15625 266.726562 591.300781 271.367188 C 587.800781 275.582031 583.554688 274.664062 579.792969 271.832031 C 567.941406 262.910156 555.054688 255.738281 540.554688 252.835938 C 490.886719 242.898438 445.351562 251.007812 405.875 285.875 Z M 405.875 285.875 " fill-opacity="1" fill-rule="nonzero"/><path fill="#000000" d="M 466.15625 380.058594 C 449.953125 377.375 435.53125 371.953125 421.851562 364.492188 C 419.605469 363.269531 417.363281 361.882812 415.492188 360.164062 C 412.902344 357.78125 412.574219 354.570312 413.9375 351.441406 C 415.289062 348.335938 418.203125 347.851562 421.214844 348.085938 C 425.285156 348.402344 429.054688 349.816406 432.558594 351.8125 C 471.117188 373.769531 507.363281 366.6875 542.308594 343.132812 C 545.839844 340.75 548.953125 337.605469 553.710938 337.675781 C 557.039062 337.722656 560.167969 338.191406 561.8125 341.414062 C 563.53125 344.785156 561.753906 347.570312 559.46875 349.894531 C 557.875 351.515625 555.992188 352.882812 554.109375 354.175781 C 527.855469 372.222656 499.40625 382.921875 466.15625 380.058594 Z M 466.15625 380.058594 " fill-opacity="1" fill-rule="nonzero"/><path fill="#000000" d="M 213.890625 360.261719 C 234.496094 377.375 255.15625 370.898438 275.796875 361.960938 C 279.46875 360.371094 282.765625 357.925781 286.382812 356.1875 C 290.5625 354.179688 294.328125 355.164062 296.980469 358.972656 C 299.683594 362.851562 297.953125 366.429688 294.863281 368.84375 C 272.292969 386.472656 229.355469 399.019531 200.898438 371.023438 C 199.269531 369.417969 197.726562 367.695312 196.304688 365.902344 C 193.839844 362.796875 193.753906 359.488281 196.332031 356.464844 C 198.832031 353.527344 202.074219 352.5625 205.582031 354.574219 C 208.304688 356.136719 210.8125 358.074219 213.890625 360.261719 Z M 213.890625 360.261719 " fill-opacity="1" fill-rule="nonzero"/><path fill="#000000" d="M 380.859375 633.394531 C 363.859375 641.125 346.824219 645.582031 328.628906 644.109375 C 314.960938 643 303.15625 637.75 293.847656 627.503906 C 290.714844 624.050781 289.089844 619.898438 292.742188 615.960938 C 296.375 612.046875 300.652344 612.972656 304.167969 616.296875 C 323.476562 634.570312 344.96875 630.636719 366.824219 622.539062 C 371.652344 620.753906 376.257812 618.359375 380.929688 616.171875 C 384.867188 614.328125 388.894531 613.285156 391.429688 617.878906 C 393.667969 621.933594 392.15625 625.789062 388.71875 628.585938 C 386.519531 630.375 383.886719 631.625 380.859375 633.394531 Z M 380.859375 633.394531 " fill-opacity="1" fill-rule="nonzero"/><path fill="#000000" d="M 393.386719 494.152344 C 393.351562 514.464844 379.164062 524.460938 361.257812 517.476562 C 354.824219 514.96875 348.476562 512.523438 341.371094 512.589844 C 336.609375 512.636719 332.550781 510.492188 332.574219 505.203125 C 332.601562 499.714844 337.113281 498.578125 341.652344 498.082031 C 351.101562 497.046875 359.828125 499.730469 368.375 503.292969 C 371.699219 504.679688 374.898438 505.695312 377.800781 502.4375 C 380.367188 499.5625 380.777344 496.503906 379.378906 492.894531 C 377.691406 488.550781 373.8125 482.738281 379.71875 480.074219 C 386.296875 477.105469 388.65625 484.199219 391.488281 488.617188 C 392.394531 490.03125 392.699219 491.824219 393.386719 494.152344 Z M 393.386719 494.152344 " fill-opacity="1" fill-rule="nonzero"/></svg>