<svg version="1.1" id="Layer_1" xmlns="http://www.w3.org/2000/svg" xmlns:xlink="http://www.w3.org/1999/xlink" x="0px" y="0px"
	 width="100%" viewBox="0 0 1024 1024" enable-background="new 0 0 1024 1024" xml:space="preserve">
<path fill="#000000" opacity="1.000000" stroke="none" 
	d="
M476.265259,545.919739 
	C470.608063,542.849121 465.850311,539.246765 462.160583,534.386658 
	C460.384979,532.047852 459.696777,529.389282 462.235229,527.257690 
	C464.581818,525.287231 466.899078,526.331726 468.856842,528.325867 
	C483.672577,543.416992 501.525787,546.207581 521.321960,541.375671 
	C557.750549,532.484253 589.340942,514.540161 616.787903,489.373322 
	C642.096863,466.166901 656.035706,436.416840 663.568481,403.418793 
	C670.442749,373.305328 673.517578,342.782837 672.736572,311.873840 
	C672.653381,308.579559 670.972900,303.266785 676.452881,303.172424 
	C682.192139,303.073578 681.207886,308.406586 681.336731,312.304352 
	C682.335449,342.534241 679.198181,372.385773 673.091309,401.961517 
	C672.790833,403.416809 671.949219,404.954773 673.508057,406.078491 
	C675.115234,407.237061 676.642761,406.357422 678.155945,405.553833 
	C682.044128,403.489044 685.492065,400.800720 688.092529,397.312408 
	C699.441833,382.088043 705.062866,364.743073 706.654419,345.963409 
	C706.859924,343.538422 706.084351,341.391846 705.010437,339.276367 
	C703.269470,335.847107 700.768738,334.755981 697.224365,336.529633 
	C696.926514,336.678711 696.639526,336.857788 696.328674,336.971405 
	C693.564087,337.981842 690.263916,341.219910 688.168091,336.950531 
	C686.224365,332.990967 689.466492,330.127075 692.705444,328.716187 
	C705.629089,323.086609 713.688538,327.543915 715.260742,343.715210 
	C716.011475,351.437103 714.170471,358.941376 712.202087,366.341614 
	C708.892761,378.782990 704.656677,390.841980 697.002930,401.419708 
	C691.507385,409.014771 684.315186,414.200043 675.138245,416.137360 
	C670.778442,417.057739 668.636230,419.415039 667.366272,423.462738 
	C660.516541,445.294739 650.357117,465.378235 635.498352,482.935699 
	C621.903198,498.999969 605.465820,511.604279 587.807434,522.863770 
	C565.199219,537.279480 540.885498,547.251160 514.448303,551.681030 
	C501.363007,553.873657 488.569702,552.310242 476.265259,545.919739 
z"/>
<path fill="#000000" opacity="1.000000" stroke="none" 
	d="
M379.614868,610.223755 
	C399.064636,620.222717 406.762878,636.256226 405.339386,657.205811 
	C404.072632,675.848999 395.988525,690.203430 378.957367,698.898987 
	C362.969818,707.061646 345.898651,707.955383 328.420013,706.835083 
	C319.972809,706.293701 311.476959,706.514893 303.003326,706.378662 
	C301.839600,706.359863 300.670990,706.326050 299.515411,706.200134 
	C298.002716,706.035278 297.051910,705.134521 296.956940,703.619751 
	C296.867218,702.189148 298.018616,701.410645 299.136871,701.275574 
	C308.544373,700.139404 308.777954,693.462952 308.727600,686.192200 
	C308.581268,665.049805 308.632141,643.905518 308.693939,622.762268 
	C308.714386,615.764343 307.428009,609.779236 299.433655,607.747375 
	C297.970306,607.375427 296.622406,606.406189 296.987762,604.511841 
	C297.255341,603.124634 298.444580,602.697693 299.653259,602.737000 
	C321.364868,603.442627 343.221832,599.681213 364.785187,604.746338 
	C369.808563,605.926208 374.645233,607.750122 379.614868,610.223755 
M386.607269,656.495239 
	C386.284760,653.355835 385.974060,650.215210 385.637817,647.077271 
	C383.617188,628.220032 372.095551,615.090759 353.643494,610.856445 
	C348.460785,609.667175 343.166321,609.176819 337.809601,609.361145 
	C324.977020,609.802795 325.938843,606.626709 325.542664,621.531250 
	C324.910583,645.311157 325.431824,669.120300 325.309692,692.916321 
	C325.286774,697.384583 327.385986,699.500793 331.472626,699.657410 
	C337.284851,699.880005 343.151581,700.187927 348.923218,699.665771 
	C363.576935,698.340027 374.460205,690.947632 381.535400,678.038696 
	C385.055847,671.615540 385.862396,664.498413 386.607269,656.495239 
z"/>
<path fill="#000000" opacity="1.000000" stroke="none" 
	d="
M395.151733,811.668701 
	C391.369843,825.978027 380.285187,830.979614 367.912872,833.049072 
	C349.933167,836.056580 331.676239,833.734619 313.548309,834.258728 
	C311.746826,834.310791 310.097656,833.642761 309.899750,831.615845 
	C309.684448,829.411011 311.476624,829.086365 313.162994,828.644775 
	C320.785004,826.648804 321.630585,825.614197 321.645691,817.687988 
	C321.688232,795.358459 321.620728,773.028748 321.688751,750.699341 
	C321.710144,743.674011 319.688141,738.231934 312.071442,736.436829 
	C310.533569,736.074402 309.068207,735.379639 309.335907,733.482300 
	C309.595184,731.644775 311.275604,731.411560 312.758362,731.121765 
	C313.245453,731.026611 313.760681,730.950378 314.248535,731.002197 
	C331.009186,732.781860 347.839203,729.117371 364.593384,731.660278 
	C369.230072,732.364014 373.762451,733.465149 377.940735,735.565491 
	C391.194946,742.227844 393.102722,761.026428 381.680695,770.971191 
	C378.419312,773.810730 374.455017,775.568604 369.431061,778.977051 
	C387.383636,783.256165 399.047577,791.606018 395.151733,811.668701 
M338.326019,805.499329 
	C338.331055,810.984192 338.412109,816.470398 338.309479,821.953247 
	C338.257050,824.753784 339.513977,826.468201 342.120117,826.973694 
	C355.081909,829.487732 365.398621,828.169067 373.366669,817.356689 
	C382.047882,805.576660 376.270599,789.007935 362.335999,784.934448 
	C355.689850,782.991455 348.883575,783.135193 342.086884,783.000122 
	C339.351227,782.945801 338.275665,784.368164 338.311829,787.048340 
	C338.390289,792.864441 338.330078,798.682495 338.326019,805.499329 
M357.548523,774.190552 
	C359.009705,773.395569 360.549377,772.716187 361.918854,771.786194 
	C368.727966,767.162048 371.766846,760.840332 370.732605,752.534668 
	C369.773193,744.830383 364.593964,741.075012 358.078583,738.581482 
	C352.959076,736.622314 347.578766,737.092102 342.286316,737.639526 
	C339.714630,737.905518 338.260986,739.416504 338.296692,742.377625 
	C338.419098,752.529419 338.387421,762.683960 338.311707,772.836609 
	C338.291077,775.605896 339.410187,776.657532 342.167999,776.707031 
	C347.207001,776.797424 352.113037,776.295532 357.548523,774.190552 
z"/>
<path fill="#000000" opacity="1.000000" stroke="none" 
	d="
M455.653442,697.172485 
	C473.249725,706.013672 496.143921,699.051025 505.084991,682.516846 
	C506.084991,680.667664 506.834045,678.045044 509.685638,679.043396 
	C512.173706,679.914429 511.424683,682.462341 511.239655,684.293091 
	C510.655823,690.071106 509.912415,695.839661 509.002014,701.575562 
	C508.396698,705.389221 506.181366,707.188599 502.016083,706.980835 
	C478.718903,705.818542 455.408356,706.295715 432.100647,706.691284 
	C431.271332,706.705383 430.423859,706.744141 429.614136,706.603333 
	C427.730194,706.275574 425.178528,706.623169 425.007477,703.852539 
	C424.856110,701.400757 427.228363,701.281189 428.888092,700.767517 
	C436.116791,698.530212 436.697540,697.953308 436.712830,690.243347 
	C436.759064,666.924866 436.661285,643.606079 436.716949,620.287659 
	C436.730896,614.443115 434.594757,610.335510 428.747375,608.558167 
	C426.831848,607.975952 424.615662,607.272095 424.964264,604.686951 
	C425.306580,602.148621 427.691071,602.748901 429.388580,602.501404 
	C436.033264,601.532471 442.680237,602.528992 449.322418,602.507812 
	C465.131287,602.457275 480.952972,603.346497 496.751862,601.931824 
	C503.858582,601.295471 504.194305,601.932922 505.568542,609.040039 
	C506.436646,613.529602 506.210297,617.986511 506.335358,622.465332 
	C506.387329,624.325317 506.425537,626.271790 503.942871,626.714172 
	C501.806915,627.094727 500.487030,625.928101 499.492859,624.230957 
	C499.156494,623.656799 498.795898,623.085571 498.549408,622.471619 
	C494.555817,612.524475 486.507568,609.360779 476.588989,609.322144 
	C470.759399,609.299438 464.928619,609.354858 459.100616,609.250671 
	C455.830902,609.192261 454.189606,610.345215 454.230286,613.889038 
	C454.354462,624.714294 454.307648,635.541687 454.289673,646.368286 
	C454.285583,648.828430 454.831818,650.673889 457.821472,650.629700 
	C462.648865,650.558289 467.503021,650.834290 472.298431,650.417603 
	C478.688202,649.862366 484.403442,647.863586 486.857513,640.977112 
	C487.406586,639.436340 488.640564,638.591736 490.385651,638.814514 
	C492.609894,639.098511 492.890808,640.885864 492.908112,642.529358 
	C492.986847,650.021973 492.998993,657.516968 492.882019,665.008667 
	C492.853668,666.822876 492.387604,668.757935 490.069031,669.175720 
	C487.447052,669.648315 486.441711,667.812378 485.873627,665.836914 
	C484.178101,659.941162 479.799896,657.710144 474.238617,657.434082 
	C468.921234,657.170227 463.581848,657.358643 458.252197,657.330933 
	C455.959778,657.319031 454.313324,658.012207 454.324524,660.685547 
	C454.372650,672.175476 454.403229,683.665527 454.499573,695.155029 
	C454.504456,695.739197 455.061676,696.318787 455.653442,697.172485 
z"/>
<path fill="#000000" opacity="1.000000" stroke="none" 
	d="
M612.747070,681.643677 
	C613.841309,679.525024 615.160767,678.151062 617.273010,679.043335 
	C619.353149,679.922058 619.142212,681.803284 618.840210,683.753662 
	C617.926270,689.655457 617.152527,695.579651 616.373962,701.501648 
	C615.842102,705.547424 613.661865,707.123657 609.551514,706.940186 
	C587.753540,705.967529 565.950073,706.077454 544.145203,706.856750 
	C541.334412,706.957214 538.502319,706.538574 535.683838,706.313904 
	C534.228210,706.197815 533.112793,705.539795 532.894836,703.962280 
	C532.660706,702.267822 533.874878,701.333252 535.166992,701.168762 
	C544.539734,699.975952 544.797180,693.336792 544.742615,686.055176 
	C544.586426,665.234131 544.636719,644.410950 544.709167,623.589050 
	C544.733887,616.470703 543.781006,610.168091 535.424988,608.094482 
	C533.979370,607.735718 532.709106,606.701538 532.860840,604.845215 
	C533.047485,602.562073 534.900452,602.301453 536.511353,602.269897 
	C540.496460,602.191772 544.486816,602.442932 548.474670,602.432983 
	C567.447388,602.385498 586.426758,603.388672 605.391357,601.870361 
	C612.016785,601.339966 613.138733,602.604187 613.358948,609.315979 
	C613.505859,613.795715 614.755066,618.190674 614.342224,622.725403 
	C614.185486,624.448120 614.168640,626.077942 612.093262,626.673523 
	C609.973206,627.281921 608.562378,626.364502 607.485779,624.658997 
	C607.041931,623.955750 606.533447,623.267090 606.236389,622.501221 
	C602.326965,612.419189 594.150085,609.472229 584.293457,609.356689 
	C578.630859,609.290283 572.967285,609.313171 567.304504,609.260498 
	C563.250061,609.222717 561.214111,610.845947 561.295227,615.243164 
	C561.479492,625.234375 561.451660,635.232788 561.305115,645.225281 
	C561.248901,649.060364 562.738708,650.824585 566.576294,650.638794 
	C571.550415,650.397949 576.522095,650.961426 581.515991,650.096863 
	C587.322327,649.091614 591.935913,646.766174 594.355225,641.106689 
	C595.097961,639.369202 596.318726,638.454773 598.280701,638.856445 
	C600.261475,639.261963 600.283020,640.855896 600.288879,642.358765 
	C600.317932,649.854431 600.312439,657.350342 600.299744,664.846130 
	C600.296509,666.758667 600.047852,668.626160 597.749756,669.122864 
	C595.194397,669.675171 594.132263,668.071594 593.537964,665.943481 
	C591.891235,660.046936 587.345764,657.851440 581.887451,657.461548 
	C576.583252,657.082642 571.233032,657.345581 565.903015,657.329773 
	C562.819580,657.320618 561.340942,658.827637 561.354248,661.944885 
	C561.397705,672.105774 561.376709,682.266785 561.401489,692.427795 
	C561.412842,697.088379 564.666687,698.801270 568.453308,699.501770 
	C577.750610,701.221680 587.036011,700.513550 596.146912,698.270935 
	C604.750488,696.153198 609.046875,689.380249 612.747070,681.643677 
z"/>
<path fill="#000000" opacity="1.000000" stroke="none" 
	d="
M665.306580,778.667480 
	C669.432007,778.663269 673.110962,778.862793 676.757141,778.603455 
	C683.033142,778.156799 688.515137,776.143127 691.263855,769.791626 
	C692.039307,767.999695 692.984009,766.433289 695.283752,766.896667 
	C697.895752,767.422852 697.291504,769.640137 697.308899,771.336853 
	C697.382141,778.498108 697.356995,785.660583 697.321655,792.822388 
	C697.312683,794.638245 697.460510,796.673340 694.984558,797.148315 
	C692.686951,797.589111 691.455627,796.108765 690.979980,794.252258 
	C689.304626,787.712463 684.276489,785.904968 678.513062,785.494202 
	C673.706421,785.151672 668.857117,785.450500 664.029480,785.343689 
	C661.205566,785.281189 660.224731,786.595093 660.243652,789.292236 
	C660.317139,799.784851 660.375305,810.279236 660.242554,820.770508 
	C660.200806,824.067688 661.780396,825.928894 664.641968,826.490601 
	C675.741760,828.669678 686.813171,829.021240 697.389160,824.185059 
	C703.022217,821.609131 705.752930,816.310242 708.489197,811.106750 
	C709.508789,809.167908 710.155945,806.061646 713.250977,807.113037 
	C716.156616,808.099976 715.226379,810.906616 714.900940,813.175232 
	C714.124268,818.589355 713.301147,823.996887 712.525635,829.411194 
	C712.013367,832.987793 710.070740,834.428101 706.389771,834.410950 
	C683.239136,834.303223 660.087769,834.349060 636.936646,834.326233 
	C634.790344,834.324158 632.079346,834.637939 631.641296,831.843262 
	C631.141541,828.655029 634.100769,828.919006 636.101685,828.517822 
	C641.038879,827.527893 642.870789,824.417847 642.854736,819.563721 
	C642.776611,795.914246 642.732971,772.263855 642.871033,748.614990 
	C642.904602,742.866089 640.848206,739.069336 635.269409,737.221497 
	C633.472351,736.626221 630.927368,736.003296 631.379944,733.420837 
	C631.823486,730.889771 634.435120,730.973022 636.308472,731.083923 
	C653.597778,732.107788 670.910095,730.132874 688.179810,731.482788 
	C693.398438,731.890625 698.459717,730.818665 703.610474,730.730469 
	C707.483704,730.664185 709.318604,732.053040 709.447815,736.247253 
	C709.600891,741.212708 710.631775,746.143799 710.330505,751.158997 
	C710.236023,752.731323 710.063232,754.180908 708.316101,754.775696 
	C706.437805,755.415161 705.101074,754.545532 703.998840,753.133789 
	C703.693298,752.742554 703.380493,752.321777 703.213318,751.862793 
	C699.315857,741.158813 690.699707,737.886108 680.370728,737.486633 
	C675.048035,737.280823 669.712402,737.436890 664.384460,737.331543 
	C661.411926,737.272766 660.210083,738.602173 660.230530,741.548767 
	C660.306763,752.540955 660.353760,763.534790 660.239258,774.526184 
	C660.203613,777.948975 661.817810,778.946594 665.306580,778.667480 
z"/>
<path fill="#000000" opacity="1.000000" stroke="none" 
	d="
M650.677002,623.199280 
	C650.892517,615.683716 649.600586,609.663208 641.222290,608.129395 
	C639.411987,607.797913 638.241943,606.510925 638.628235,604.495728 
	C639.014160,602.481934 640.780090,602.650574 642.229980,602.628845 
	C653.039001,602.466370 663.854248,602.526245 674.656494,602.175537 
	C682.491394,601.921326 690.254944,602.014832 697.941589,603.689331 
	C712.313477,606.820007 721.522156,616.187195 722.310120,628.476990 
	C723.407837,645.597412 716.595886,656.189575 701.299561,661.760254 
	C692.177612,665.082336 682.783447,665.750854 673.266785,665.251282 
	C668.676819,665.010254 667.024597,666.551575 667.263428,671.207458 
	C667.604492,677.855286 667.301636,684.534058 667.368530,691.198730 
	C667.430481,697.367920 669.334473,699.572876 675.363281,700.625061 
	C677.452332,700.989685 680.189636,700.712036 680.093323,703.787354 
	C679.990356,707.076233 677.128479,706.302185 675.118835,706.340759 
	C665.130615,706.532654 655.140869,706.651123 645.151123,706.739624 
	C643.831421,706.751343 642.503357,706.478027 641.189270,706.272217 
	C639.897644,706.069946 639.100708,705.272827 638.902588,703.980774 
	C638.651978,702.345398 639.651794,701.213562 641.013062,701.073730 
	C650.502930,700.098877 650.786560,693.472534 650.731384,686.158569 
	C650.574463,665.330750 650.677368,644.500916 650.677002,623.199280 
M701.503540,622.168091 
	C695.731079,611.892822 685.237488,607.306274 672.177979,608.944458 
	C668.608887,609.392151 667.288696,610.805908 667.315857,614.311890 
	C667.416443,627.275757 667.458313,640.242249 667.285095,653.204590 
	C667.236023,656.878845 668.842407,658.240234 672.170654,658.625000 
	C694.571594,661.214783 708.629028,644.270813 701.503540,622.168091 
z"/>
<path fill="#000000" opacity="1.000000" stroke="none" 
	d="
M606.455078,741.663330 
	C605.134888,746.374268 604.335266,750.771423 604.335876,755.291626 
	C604.337830,769.454468 604.346924,783.617371 604.328918,797.780212 
	C604.303955,817.382141 594.746582,829.820190 575.717163,834.537781 
	C560.913513,838.207642 546.618286,837.032410 533.498962,828.600281 
	C524.848755,823.040588 520.670044,814.910339 520.666992,804.636963 
	C520.661743,786.808411 520.668518,768.979858 520.662537,751.151306 
	C520.659302,741.660645 519.661804,740.152405 511.096313,736.690552 
	C509.696960,736.124939 508.071564,735.711609 508.098938,733.830322 
	C508.128052,731.828979 509.904938,731.502747 511.318878,731.361633 
	C513.953247,731.098755 516.651245,730.882446 519.268616,731.159180 
	C525.427734,731.810120 531.554504,731.880798 537.702087,731.155823 
	C539.020996,731.000183 540.414307,730.791626 541.684204,731.048279 
	C544.264160,731.569885 548.288025,730.302246 548.845215,733.824097 
	C549.380676,737.209351 545.346313,736.516357 543.251953,737.353760 
	C539.018860,739.046204 538.442444,742.731750 538.376038,746.370239 
	C538.145203,759.028687 538.142883,771.692200 538.143677,784.353760 
	C538.144165,791.349915 537.792358,798.403076 538.535706,805.330078 
	C539.993103,818.911682 550.065063,826.825317 565.914612,827.621887 
	C584.241699,828.542908 596.018982,817.460083 596.569336,798.001099 
	C596.997864,782.850891 596.822205,767.676208 596.584778,752.517578 
	C596.467468,745.032166 594.827148,738.094910 585.758850,736.359192 
	C584.373108,736.093933 583.120300,735.364502 583.154541,733.782959 
	C583.197815,731.786865 584.948364,731.407593 586.391907,731.394165 
	C595.682251,731.307678 604.974426,731.310486 614.264648,731.406189 
	C615.708069,731.421021 617.413391,731.801819 617.388855,733.881042 
	C617.365662,735.847107 615.769470,736.113281 614.317078,736.566711 
	C611.351440,737.492493 607.948608,737.742249 606.455078,741.663330 
z"/>
<path fill="#000000" opacity="1.000000" stroke="none" 
	d="
M427.671448,815.800415 
	C427.670471,793.680542 427.645691,772.035767 427.676666,750.391052 
	C427.686066,743.819397 426.896179,737.932800 418.692078,736.730469 
	C417.280884,736.523621 415.723511,735.722168 415.908875,733.761414 
	C416.098389,731.756714 417.798584,731.662964 419.244720,731.432617 
	C420.718231,731.197815 422.242615,730.924927 423.708679,731.059875 
	C432.179962,731.839905 440.638763,731.531067 449.108978,731.083740 
	C450.911438,730.988586 452.740631,731.431580 454.559540,731.605652 
	C455.952362,731.739075 457.365021,732.025513 457.538605,733.669189 
	C457.748718,735.658752 456.137329,735.931152 454.653687,736.395874 
	C445.907349,739.135376 445.258636,739.889282 445.231140,749.251099 
	C445.162628,772.560364 445.193451,795.870056 445.235687,819.179443 
	C445.245941,824.848267 447.103577,827.043579 452.817719,827.554321 
	C460.821930,828.269653 468.727600,827.652466 476.491760,825.236694 
	C483.627502,823.016479 486.871582,817.439575 489.730652,811.241028 
	C490.944366,808.609741 491.406158,803.840637 495.567535,805.311157 
	C499.283264,806.624146 497.173920,810.861023 496.962158,813.790833 
	C496.627899,818.414917 495.787079,823.000061 495.269897,827.613953 
	C494.750946,832.243469 492.873352,834.544983 487.600525,834.477112 
	C465.959839,834.198669 444.313690,834.346497 422.669556,834.334473 
	C421.670837,834.333923 420.672058,834.309082 419.673401,834.289246 
	C417.826385,834.252502 416.251678,833.597168 416.064606,831.602478 
	C415.892456,829.766602 417.436951,829.236633 418.929352,828.710693 
	C427.489685,825.694031 427.508942,825.634033 427.671448,815.800415 
z"/>
<path fill="#000000" opacity="1.000000" stroke="none" 
	d="
M435.094818,271.761353 
	C449.606934,272.250732 462.586395,275.676544 472.754822,286.095764 
	C484.001740,297.620117 486.789368,312.068604 486.612274,327.486176 
	C486.462555,340.523376 482.450226,352.686005 478.141876,364.749237 
	C474.674622,374.457520 470.877869,384.049957 467.126007,393.654236 
	C464.147797,401.278137 465.033783,403.786499 472.399445,407.625763 
	C473.137756,408.010559 473.900208,408.355164 474.611511,408.784546 
	C476.677521,410.031799 477.890198,411.709686 476.785950,414.178711 
	C475.704498,416.596832 473.813538,417.824951 471.139252,417.025055 
	C460.226349,413.760956 454.003479,405.553741 457.628082,394.849823 
	C462.425751,380.681610 467.808899,366.712799 472.770203,352.598450 
	C477.245544,339.866608 479.565460,326.774933 476.611237,313.385040 
	C469.773926,282.395447 432.548584,270.731537 409.154541,292.113495 
	C407.682587,293.458893 406.310150,294.917511 404.941895,296.370941 
	C402.987915,298.446564 400.916504,301.252167 397.921112,298.653107 
	C395.203064,296.294708 396.963409,293.467621 398.588928,291.051331 
	C407.195160,278.258728 419.803711,272.935089 435.094818,271.761353 
z"/>
<path fill="#000000" opacity="1.000000" stroke="none" 
	d="
M452.499420,449.449799 
	C461.280273,442.873230 470.362885,439.988800 480.745514,444.309326 
	C483.056549,445.271027 485.322449,444.598785 487.534363,443.752869 
	C494.619568,441.043182 501.515411,441.879181 508.316101,444.829041 
	C518.032410,449.043579 526.965698,455.154572 537.734924,456.836761 
	C540.064270,457.200562 540.124451,459.311768 540.143616,461.173309 
	C540.168213,463.561035 538.751770,464.766327 536.582397,465.307190 
	C528.442749,467.336700 520.155029,468.289246 511.898102,466.761932 
	C503.910156,465.284393 496.124634,464.989807 488.264374,467.264160 
	C486.248657,467.847412 484.133606,468.367584 481.901947,467.614807 
	C473.870819,464.905853 465.528107,465.299255 457.230896,465.370178 
	C453.141998,465.405121 449.280640,464.476166 445.795471,462.409729 
	C441.596893,459.920319 441.703796,456.014038 445.841644,453.585632 
	C447.989594,452.325165 450.081818,450.969757 452.499420,449.449799 
M482.521576,454.223389 
	C480.088654,454.195831 478.165070,452.681732 475.964813,451.970703 
	C469.989777,450.039978 464.741577,451.315887 461.993500,455.419250 
	C477.725250,460.199677 493.487671,457.537018 509.907715,456.507507 
	C509.062225,455.343719 508.921936,455.001495 508.666901,454.830292 
	C508.119812,454.463074 507.519287,454.172729 506.930542,453.870697 
	C499.015503,449.810028 491.167877,451.023346 482.521576,454.223389 
z"/>
<path fill="#000000" opacity="1.000000" stroke="none" 
	d="
M409.309631,248.306000 
	C416.850922,234.302521 420.948425,219.267410 427.285889,205.156067 
	C433.366852,191.615921 441.058960,179.341782 452.996643,170.141235 
	C457.660461,166.546722 462.825806,163.935760 468.465302,162.259720 
	C471.324829,161.409866 474.036530,161.681870 475.051422,164.820465 
	C475.963043,167.639572 474.251740,169.786789 471.599243,170.599213 
	C451.081177,176.883667 441.990021,193.591644 434.238281,211.472412 
	C428.551239,224.590591 424.672211,238.431244 418.274384,251.281113 
	C413.043976,261.786255 405.433868,269.818176 394.851715,274.940430 
	C392.274963,276.187683 389.330139,277.605835 387.447754,274.121887 
	C385.553436,270.615845 387.844513,268.512939 390.715332,266.975311 
	C398.696442,262.700562 405.177094,256.938782 409.309631,248.306000 
z"/>
<path fill="#000000" opacity="1.000000" stroke="none" 
	d="
M526.450684,282.649567 
	C524.137939,284.872925 521.932861,286.528015 519.279175,284.041931 
	C516.542053,281.477753 518.564880,279.018646 520.056519,276.952942 
	C523.210938,272.584412 527.294617,269.082855 531.993713,266.496521 
	C562.192017,249.875870 593.052124,245.972107 624.791992,262.123657 
	C627.586487,263.545685 630.179199,265.436737 632.669006,267.363953 
	C634.994263,269.163788 636.187378,271.547241 633.952759,274.238770 
	C631.924133,276.682190 629.461609,276.149414 627.282104,274.508942 
	C620.410156,269.336670 612.939514,265.176666 604.533264,263.494751 
	C575.737793,257.733307 549.338379,262.435303 526.450684,282.649567 
z"/>
<path fill="#000000" opacity="1.000000" stroke="none" 
	d="
M561.400208,337.252808 
	C552.005676,335.697937 543.644348,332.554260 535.712341,328.229034 
	C534.410828,327.519348 533.110107,326.716797 532.026978,325.720337 
	C530.525696,324.339142 530.334412,322.477081 531.125122,320.663086 
	C531.909729,318.862946 533.597778,318.581085 535.343933,318.717133 
	C537.703552,318.900909 539.888672,319.720703 541.921021,320.877869 
	C564.276428,333.606476 585.288757,329.501434 605.550232,315.844391 
	C607.596619,314.465027 609.402344,312.640869 612.160767,312.681030 
	C614.088501,312.709137 615.904297,312.981445 616.857544,314.849335 
	C617.854187,316.802399 616.822327,318.417084 615.497375,319.765167 
	C614.574219,320.704468 613.482117,321.498444 612.390747,322.248566 
	C597.170532,332.709625 580.675964,338.913116 561.400208,337.252808 
z"/>
<path fill="#000000" opacity="1.000000" stroke="none" 
	d="
M415.145813,325.777039 
	C427.092651,335.698486 439.071167,331.942871 451.037323,326.761322 
	C453.166260,325.839447 455.076202,324.422729 457.173798,323.414612 
	C459.598358,322.249390 461.781433,322.819916 463.318390,325.028076 
	C464.884369,327.277893 463.882721,329.352936 462.090546,330.752441 
	C449.004272,340.971344 424.113037,348.247192 407.614716,332.014801 
	C406.668396,331.083771 405.775604,330.086670 404.950348,329.046967 
	C403.520538,327.245605 403.470764,325.328674 404.965820,323.574493 
	C406.416321,321.872589 408.294312,321.312408 410.329681,322.479797 
	C411.908386,323.385254 413.362244,324.508301 415.145813,325.777039 
z"/>
<path fill="#000000" opacity="1.000000" stroke="none" 
	d="
M511.946625,484.127563 
	C502.091461,488.608307 492.214752,491.194000 481.666992,490.338715 
	C473.742371,489.696167 466.897980,486.653229 461.502747,480.711792 
	C459.686401,478.711456 458.744049,476.303162 460.861359,474.020264 
	C462.966400,471.750580 465.447083,472.287354 467.485107,474.215973 
	C478.680298,484.810242 491.139160,482.528381 503.810730,477.834747 
	C506.609009,476.798248 509.279053,475.409668 511.988739,474.141785 
	C514.270447,473.074158 516.605591,472.469910 518.075195,475.131653 
	C519.373108,477.482544 518.496399,479.718750 516.503967,481.340393 
	C515.229797,482.377441 513.701782,483.102509 511.946625,484.127563 
z"/>
<path fill="#000000" opacity="1.000000" stroke="none" 
	d="
M360.446930,885.185669 
	C358.591980,889.040527 359.578430,893.078308 359.362274,897.022644 
	C359.238525,899.280640 358.831421,900.968140 356.069397,900.924133 
	C353.444305,900.882324 352.679047,899.396973 352.689514,897.047302 
	C352.721283,889.898010 352.669159,882.748230 352.703278,875.598938 
	C352.711731,873.828003 352.331726,871.728821 354.750000,871.080505 
	C356.840179,870.520264 358.717834,870.996277 360.113373,872.769287 
	C363.196228,876.685974 366.261230,880.616577 369.339447,884.536926 
	C370.139709,885.556152 370.961914,886.558167 372.694885,888.713135 
	C372.694885,883.207581 372.720490,878.978210 372.684723,874.749390 
	C372.665070,872.427307 373.378662,870.921570 376.044098,870.868774 
	C378.830322,870.813599 379.337524,872.474426 379.333313,874.730835 
	C379.320374,881.714111 379.386047,888.697815 379.313263,895.680298 
	C379.293823,897.547607 380.045227,899.991211 377.410461,900.765991 
	C374.888092,901.507629 372.870972,900.290955 371.334381,898.309204 
	C368.585083,894.763428 365.899597,891.167908 363.132507,887.636230 
	C362.424622,886.732788 361.510803,885.990601 360.446930,885.185669 
z"/>
<path fill="#000000" opacity="1.000000" stroke="none" 
	d="
M606.136169,877.885010 
	C608.714844,881.353271 611.071960,884.540588 613.955017,888.439270 
	C615.116150,883.415039 614.455627,879.181702 614.655151,875.013916 
	C614.753357,872.963867 614.654236,870.899353 617.608582,870.822083 
	C620.642700,870.742737 621.165588,872.625061 621.163208,875.048645 
	C621.156311,882.037354 621.187927,889.026184 621.157959,896.014771 
	C621.149475,897.992737 621.353271,900.212830 618.758362,900.881592 
	C616.392639,901.491211 614.616760,900.583740 613.187256,898.595154 
	C609.631470,893.648499 605.974243,888.774841 601.334412,884.178406 
	C601.334412,888.457947 601.330139,892.737549 601.336365,897.017090 
	C601.339233,898.957947 601.182312,900.850220 598.624878,900.916565 
	C596.145752,900.980957 594.988708,899.534180 594.983093,897.159607 
	C594.965454,889.672424 594.957947,882.184875 595.019897,874.698059 
	C595.032288,873.203003 595.266968,871.589355 597.031311,871.051392 
	C598.929077,870.472656 600.695618,870.829651 601.992065,872.436584 
	C603.349426,874.118835 604.611084,875.878296 606.136169,877.885010 
z"/>
<path fill="#000000" opacity="1.000000" stroke="none" 
	d="
M416.996094,892.505127 
	C411.584595,900.923157 403.356903,903.396851 395.396393,899.307068 
	C388.863098,895.950562 385.722015,887.564026 388.337646,880.460388 
	C391.243835,872.567505 399.905670,868.828613 408.505005,871.755310 
	C416.734802,874.556274 420.232086,882.786133 416.996094,892.505127 
M402.578003,877.131714 
	C395.586487,878.439270 392.354309,883.804321 395.029785,889.661011 
	C396.888641,893.730103 400.905518,895.698059 405.329926,894.461060 
	C409.551056,893.281006 411.468506,890.138977 411.628479,885.941895 
	C411.806885,881.260315 408.892700,878.260742 402.578003,877.131714 
z"/>
<path fill="#000000" opacity="1.000000" stroke="none" 
	d="
M530.905273,889.332397 
	C527.562805,898.823242 516.663147,903.912231 507.176697,900.847473 
	C505.159424,900.195801 504.768402,898.828003 504.769806,897.050659 
	C504.775696,889.588257 504.801788,882.125671 504.768250,874.663452 
	C504.755951,871.931396 506.096924,870.726624 508.738068,870.789062 
	C511.552704,870.855652 514.409180,870.643433 517.174316,871.050049 
	C527.675842,872.594177 531.915649,878.173340 530.905273,889.332397 
M524.239014,883.351562 
	C522.676208,879.058716 519.609924,877.092224 515.053589,877.304077 
	C513.458374,877.378296 511.656281,877.600464 511.611786,879.388306 
	C511.490112,884.279114 510.335846,889.266541 512.328857,894.023315 
	C512.516846,894.471985 513.813660,894.548584 514.613159,894.633789 
	C520.897278,895.303711 524.473572,891.460999 524.239014,883.351562 
z"/>
<path fill="#000000" opacity="1.000000" stroke="none" 
	d="
M332.979706,900.459839 
	C324.360138,902.319336 317.727661,899.066345 314.661896,891.761475 
	C311.877533,885.127075 314.332336,876.838867 320.158752,873.201782 
	C326.623444,869.166382 336.126099,870.363953 340.750244,875.796936 
	C345.481018,881.355164 345.488617,889.705383 340.824310,895.620667 
	C338.879944,898.086304 336.255615,899.407959 332.979706,900.459839 
M334.369293,878.978027 
	C330.451599,876.303345 326.456207,876.198303 322.935699,879.401855 
	C319.745270,882.304932 319.401794,886.125244 321.264832,889.934753 
	C323.524902,894.556091 328.864807,896.130432 333.148224,893.647034 
	C338.140350,890.752747 338.855377,885.072937 334.369293,878.978027 
z"/>
<path fill="#000000" opacity="1.000000" stroke="none" 
	d="
M566.073608,896.004028 
	C559.655212,901.670898 553.527039,902.661621 547.118347,899.299805 
	C541.957703,896.592651 538.662781,890.566895 539.223083,884.861145 
	C539.945374,877.505676 543.882141,872.889465 550.901917,871.166870 
	C557.193542,869.622925 564.166565,872.218323 567.544434,877.361267 
	C571.517883,883.411011 571.132874,889.239258 566.073608,896.004028 
M559.019409,878.191223 
	C557.755676,877.839722 556.510315,877.295044 555.224854,877.173279 
	C551.569702,876.827026 548.577087,878.209839 547.006897,881.557434 
	C545.351318,885.086975 545.591736,888.683289 548.074951,891.876160 
	C550.439453,894.916321 553.770081,895.245422 557.118835,894.413208 
	C563.928711,892.720764 565.234192,884.265137 559.019409,878.191223 
z"/>
<path fill="#000000" opacity="1.000000" stroke="none" 
	d="
M700.009888,896.130737 
	C700.765015,897.582886 702.026062,898.444458 701.607239,900.283020 
	C698.387817,901.700195 695.728333,901.173340 693.645142,897.989868 
	C692.460999,896.180176 691.096802,894.489136 689.837891,892.727356 
	C688.918884,891.441284 687.853699,890.402832 686.119446,890.753113 
	C684.027222,891.175720 684.444519,892.927429 684.354553,894.362854 
	C684.292053,895.359253 684.310547,896.361816 684.318176,897.361389 
	C684.334229,899.460876 683.682373,900.999512 681.236633,900.950378 
	C678.907898,900.903625 677.996582,899.429810 677.989380,897.350464 
	C677.963074,889.687561 677.978455,882.024292 678.037598,874.361572 
	C678.056274,871.944580 679.354065,870.744263 681.829956,870.780701 
	C685.818848,870.839478 689.812744,870.541870 693.741760,871.656921 
	C700.250244,873.504089 703.571655,880.496765 699.392944,885.670349 
	C696.016174,889.851135 696.829651,892.556885 700.009888,896.130737 
M690.801147,877.317139 
	C688.551147,877.583862 685.472656,875.904724 684.544067,879.382935 
	C684.083801,881.106812 683.460815,883.791443 686.113647,884.422974 
	C688.803223,885.063171 691.907043,885.344849 693.759155,882.469971 
	C695.396729,879.928162 693.634705,878.544006 690.801147,877.317139 
z"/>
<path fill="#000000" opacity="1.000000" stroke="none" 
	d="
M426.657959,894.831421 
	C426.659363,888.027344 426.782593,881.697388 426.616577,875.375000 
	C426.524933,871.885010 427.936920,870.565430 431.343109,870.744019 
	C434.984955,870.934875 438.640289,870.553406 442.232758,871.657898 
	C448.937714,873.719116 451.875031,880.754517 447.472290,886.151611 
	C444.572601,889.706177 444.874634,892.047241 447.540466,895.095398 
	C448.689545,896.409180 449.874725,897.882080 450.001434,900.234985 
	C440.633484,903.733582 441.068085,891.068359 434.455322,890.718079 
	C432.810120,892.000916 433.362152,893.620667 433.233734,895.043701 
	C433.003265,897.598389 433.794891,900.931213 429.718750,900.909546 
	C425.772766,900.888550 426.932404,897.599609 426.657959,894.831421 
M433.433533,878.992493 
	C433.011780,882.193909 432.872711,885.122925 437.569519,884.679626 
	C440.260498,884.425659 442.902618,883.763794 442.459869,880.537598 
	C441.879883,876.310974 438.259949,877.267029 435.396301,877.354919 
	C434.833313,877.372192 434.287323,877.944702 433.433533,878.992493 
z"/>
<path fill="#000000" opacity="1.000000" stroke="none" 
	d="
M719.279358,894.976807 
	C716.710266,897.935181 715.925537,903.350830 709.791748,899.755127 
	C712.893921,890.504883 716.670471,881.536011 720.769592,872.728821 
	C722.210815,869.632080 726.058655,870.194397 727.611145,873.734619 
	C731.333435,882.223083 734.762756,890.840088 738.334961,899.464722 
	C735.651001,901.552124 732.781982,901.925049 731.659485,899.240662 
	C729.074280,893.058594 724.370239,894.184448 719.279358,894.976807 
M724.324280,888.426819 
	C725.846375,885.936218 725.846375,885.936218 723.131287,883.434265 
	C723.093689,885.299988 719.894775,887.142944 724.324280,888.426819 
z"/>
<path fill="#000000" opacity="1.000000" stroke="none" 
	d="
M291.598022,892.584839 
	C289.643646,894.182373 290.320526,896.173218 290.010376,897.915344 
	C289.667847,899.839355 288.708221,900.921631 286.687988,900.871338 
	C284.646729,900.820618 283.690979,899.735596 283.692596,897.717102 
	C283.698761,889.900146 283.716553,882.083130 283.678467,874.266357 
	C283.665833,871.670837 285.026794,870.739746 287.421753,870.763306 
	C291.071411,870.799255 294.682343,870.770752 298.325165,871.527405 
	C303.440948,872.590088 305.551178,876.002502 306.130310,880.612671 
	C306.703674,885.176819 303.703918,889.666382 299.288025,891.036865 
	C296.930664,891.768433 294.412720,891.982483 291.598022,892.584839 
M290.626740,878.276917 
	C290.478302,878.742981 290.197571,879.210632 290.203339,879.674744 
	C290.235809,882.287231 288.991150,885.572021 293.613403,885.715210 
	C297.003387,885.820190 299.339020,884.253845 299.297607,881.051453 
	C299.248840,877.283936 295.998932,877.161865 293.086243,877.277466 
	C292.449860,877.302673 291.822723,877.560974 290.626740,878.276917 
z"/>
<path fill="#000000" opacity="1.000000" stroke="none" 
	d="
M519.211304,403.401276 
	C519.190674,415.176483 510.965210,420.973297 500.582428,416.923096 
	C496.853333,415.468414 493.173218,414.052307 489.053375,414.090668 
	C486.292267,414.116394 483.940887,412.873230 483.954651,409.808350 
	C483.968933,406.625702 486.585846,405.965881 489.217041,405.677734 
	C494.696259,405.077759 499.755127,406.633392 504.708954,408.699829 
	C506.636749,409.503937 508.490814,410.091644 510.175476,408.203766 
	C511.662079,406.537903 511.900818,404.764008 511.088440,402.670349 
	C510.111481,400.152557 507.861267,396.783691 511.287292,395.237915 
	C515.100342,393.517548 516.467346,397.629456 518.110168,400.191956 
	C518.634705,401.010254 518.813110,402.050507 519.211304,403.401276 
z"/>
<path fill="#000000" opacity="1.000000" stroke="none" 
	d="
M464.489990,875.435791 
	C465.672119,877.255554 466.656006,878.769836 467.720276,880.407837 
	C473.083557,878.602173 472.257782,868.295166 480.804443,871.406921 
	C481.226868,874.721313 478.990295,876.983459 477.474091,879.368469 
	C473.868042,885.040649 470.448517,890.665527 471.323792,897.824402 
	C471.525330,899.472839 470.758453,900.801270 468.846222,900.870422 
	C467.198883,900.929993 465.520416,900.337219 465.749176,898.477966 
	C466.998108,888.327148 460.062256,881.550964 455.790619,873.672241 
	C455.559631,873.246216 455.470306,872.743347 455.224304,872.003235 
	C459.600159,869.290771 462.177673,871.489502 464.489990,875.435791 
z"/>
<path fill="#000000" opacity="1.000000" stroke="none" 
	d="
M654.640991,886.089539 
	C654.637329,884.441284 654.553101,883.270569 654.639343,882.112549 
	C654.873108,878.977112 654.068726,876.947693 650.329041,877.096497 
	C648.256653,877.178894 646.230164,876.626343 646.341248,873.806641 
	C646.449524,871.058411 648.330750,870.725037 650.509705,870.734375 
	C655.335815,870.755066 660.161987,870.736511 664.988159,870.735352 
	C666.926575,870.734863 668.805054,870.940002 668.978149,873.428223 
	C669.131042,875.625854 667.967163,877.070801 665.767944,876.982605 
	C661.445984,876.809143 660.982300,879.343323 661.088135,882.755981 
	C661.232483,887.410706 661.137024,892.074158 661.083679,896.733215 
	C661.056274,899.130188 660.342346,901.145874 657.413208,900.963623 
	C654.599426,900.788513 654.634338,898.626343 654.640564,896.558044 
	C654.650574,893.229675 654.640015,889.901245 654.640991,886.089539 
z"/>
<path fill="#000000" opacity="1.000000" stroke="none" 
	d="
M639.166382,880.063110 
	C639.158813,885.849060 639.178833,891.143799 639.132141,896.437866 
	C639.112000,898.722778 638.739990,900.828796 635.723633,900.875610 
	C632.393982,900.927307 632.688171,898.507141 632.679871,896.369019 
	C632.652710,889.419922 632.663696,882.470581 632.681885,875.521362 
	C632.687622,873.339600 632.540710,871.006470 635.708801,870.869995 
	C639.209900,870.719177 639.132080,873.219788 639.176819,875.600708 
	C639.201660,876.923767 639.171997,878.247864 639.166382,880.063110 
z"/>
</svg>